<?xml version="1.0" encoding="utf-8"?>
<!-- Generator: Adobe Illustrator 16.0.0, SVG Export Plug-In . SVG Version: 6.00 Build 0)  -->
<!DOCTYPE svg PUBLIC "-//W3C//DTD SVG 1.1//EN" "http://www.w3.org/Graphics/SVG/1.1/DTD/svg11.dtd">
<svg version="1.1" id="Layer_1" xmlns="http://www.w3.org/2000/svg" xmlns:xlink="http://www.w3.org/1999/xlink" x="0px" y="0px"
	 width="499.938px" height="577.928px" viewBox="0 0 499.938 577.928" enable-background="new 0 0 499.938 577.928"
	 xml:space="preserve">
<path fill="#161616" d="M477.843,151.797L254.821,23.036c-2.669-1.541-7.037-1.541-9.707,0L22.094,151.797
	c-2.668,1.542-4.852,5.323-4.852,8.405v257.521c0,3.082,2.184,6.863,4.852,8.405l223.021,128.763c2.67,1.541,7.038,1.541,9.707,0
	l223.021-128.763c2.669-1.54,4.853-5.323,4.853-8.405V160.202C482.695,157.12,480.512,153.338,477.843,151.797z"/>
<g>
	<g>
		<polygon fill="#EFE365" points="163.982,287.353 157.562,287.353 158.949,277.636 153.223,277.462 154.785,268.091 
			138.125,268.091 128.581,318.59 146.629,318.59 150.967,291.865 157.388,291.865 155.826,302.276 161.899,302.451 159.644,318.59 
			177.518,318.59 183.418,268.091 166.758,268.091 		"/>
		<polygon fill="#EFE365" points="115.045,268.265 103.765,318.763 121.64,318.763 131.704,268.265 		"/>
		<polygon fill="#EFE365" points="184.459,318.59 227.323,318.59 227.843,308.179 203.374,308.004 204.069,297.071 228.19,297.071 
			228.711,287.353 204.937,287.353 205.804,276.942 229.058,276.942 229.579,268.091 189.839,268.091 		"/>
		<polygon fill="#EFE365" points="91.965,268.091 89.536,277.636 83.809,277.636 81.206,287.527 68.538,287.527 71.314,277.462 
			65.761,277.289 68.364,268.265 52.052,268.265 35.913,318.59 53.44,318.59 59.861,297.245 66.456,297.071 63.505,307.657 
			75.132,307.657 77.909,297.245 84.33,297.245 78.95,318.59 96.998,318.59 108.625,268.091 		"/>
		<path fill="#EFE365" d="M346.658,374.267h-4.195v10.588h4.073c1.431,0,2.504-0.478,3.22-1.429c0.716-0.95,1.073-2.223,1.073-3.815
			C350.829,376.047,349.439,374.267,346.658,374.267z"/>
		<polygon fill="#EFE365" points="183.838,377.901 180.521,390.562 187.155,390.562 		"/>
		<path fill="#EFE365" d="M153.854,204.34c-1.903,0-3.31,0.752-4.22,2.256c-0.911,1.504-1.382,3.793-1.415,6.867v6.317
			c0,3.105,0.463,5.395,1.391,6.867c0.927,1.472,2.357,2.208,4.293,2.208c1.87,0,3.26-0.72,4.171-2.159
			c0.911-1.439,1.374-3.671,1.391-6.696v-6.171c0-3.204-0.456-5.586-1.366-7.147C157.189,205.121,155.773,204.34,153.854,204.34z"/>
		<polygon fill="#EFE365" points="320.622,221.098 317.305,208.438 313.987,221.098 		"/>
		<polygon fill="#EFE365" points="252.313,308.179 252.832,276.942 275.912,276.942 275.738,267.917 235.826,268.091 
			234.264,318.59 277.128,318.59 276.779,308.179 		"/>
		<path fill="#EFE365" d="M218.007,374.267h-4.195v10.588h4.074c1.431,0,2.504-0.478,3.22-1.429c0.715-0.95,1.073-2.223,1.073-3.815
			C222.178,376.047,220.788,374.267,218.007,374.267z"/>
		<path fill="#EFE365" d="M328.319,267.917l5.553,50.499h18.048l-2.256-16.312l6.769,0.172l2.432,16.313h18.048l-8.677-50.672
			H328.319L328.319,267.917z M354.35,284.923h3.474l1.562,9.893h-4.338l-0.521-3.473h-6.247l0.348,3.299h-4.165l-1.215-9.891h3.471
			l-0.347-2.43h-6.942l-0.868-6.421h7.639l0.868,5.899h6.247l-0.694-5.899h7.809l1.041,6.421l-7.462,0.172L354.35,284.923z"/>
		<polygon fill="#EFE365" points="395.304,287.006 393.222,276.768 416.649,276.768 414.567,267.917 374.654,267.917 
			383.852,318.416 401.898,318.416 397.387,297.071 421.682,297.071 419.252,287.006 		"/>
		<path fill="#EFE365" d="M461.595,310.086c-0.347-1.214-0.868-2.603-1.214-3.991c-0.348-1.389-0.868-2.603-1.216-3.99
			c-0.521-2.084-1.214-4.338-1.908-6.422c-0.692-2.254-1.215-4.338-1.909-6.419c-0.521-2.083-1.214-4.164-1.733-6.247
			c-0.521-1.909-1.041-3.991-1.563-5.9v-0.347h11.628l-2.775-9.024h-40.262l2.258,9.024h11.627l11.452,41.648h18.049
			c-0.349-1.389-0.868-2.775-1.214-4.165C462.463,312.862,461.942,311.476,461.595,310.086z"/>
		<path fill="#EFE365" d="M493.968,142.091L255.165,4.218c-2.858-1.65-7.535-1.65-10.393,0L5.969,142.091
			c-2.858,1.65-5.196,5.7-5.196,9v275.745c0,3.3,2.338,7.35,5.196,9L244.772,573.71c2.858,1.65,7.535,1.65,10.393,0l238.803-137.874
			c2.858-1.648,5.196-5.7,5.196-9V151.091C499.164,147.791,496.826,143.741,493.968,142.091z M43.208,173.055
			c0-2.144,1.144-4.125,3-5.196L246.969,51.95c1.856-1.071,4.145-1.071,6,0L453.73,167.859c1.854,1.072,3,3.053,3,5.196v74.874h-12
			v-71.41L249.969,64.074L55.208,176.519v71.41h-12V173.055z M359.841,228.392v5.952h-19.759v-35.516h7.172v29.564H359.841z
			 M331.77,234.343h-7.658l-1.902-7.269h-9.781l-1.9,7.269h-7.586l11.099-35.516h6.562L331.77,234.343z M293.795,198.828v35.516
			h-7.172v-35.516H293.795z M260.54,226.903c0.788,1.317,2.144,1.976,4.062,1.976c1.888,0,3.188-0.459,3.902-1.378
			c0.717-0.918,1.122-2.581,1.221-4.988h7.172c-0.181,4.049-1.316,7.115-3.416,9.196c-2.098,2.081-5.058,3.122-8.879,3.122
			c-4.017,0-7.095-1.321-9.23-3.964c-2.141-2.642-3.208-6.411-3.208-11.306v-5.977c0-4.878,1.104-8.639,3.315-11.281
			c2.211-2.643,5.285-3.964,9.223-3.964c3.87,0,6.809,1.082,8.816,3.244c2.008,2.163,3.149,5.269,3.429,9.318h-7.196
			c-0.064-2.504-0.451-4.232-1.158-5.183c-0.708-0.952-2.005-1.427-3.891-1.427c-1.919,0-3.277,0.671-4.074,2.013
			c-0.797,1.341-1.22,3.549-1.27,6.623v6.708C259.357,223.164,259.751,225.586,260.54,226.903z M241.8,198.828v35.516h-7.172
			v-35.516H241.8z M223.876,213.902v5.952h-11.147v14.489h-7.171v-35.516h19.66v5.976h-12.489v9.099H223.876z M195.122,213.902
			v5.952h-11.147v14.489h-7.171v-35.516h19.66v5.976h-12.489v9.099H195.122z M166.661,213.707v6.074
			c0,4.765-1.126,8.464-3.378,11.099c-2.252,2.634-5.378,3.952-9.379,3.952c-3.984,0-7.115-1.305-9.391-3.915
			c-2.277-2.61-3.432-6.265-3.464-10.964v-6.074c0-4.878,1.13-8.688,3.391-11.428c2.26-2.74,5.399-4.11,9.416-4.11
			c3.952,0,7.065,1.346,9.342,4.037C165.473,205.068,166.628,208.845,166.661,213.707z M456.729,404.872
			c0,2.145-1.144,4.124-3,5.195l-200.761,115.91c-0.928,0.535-1.964,0.805-3,0.805c-1.036,0-2.072-0.27-3-0.805l-200.76-115.91
			c-1.856-1.071-3-3.053-3-5.195V352h12v49.408l194.761,112.446L444.73,401.408V352h12v52.872H456.729z M142.717,403.808v-35.517
			h12.099c3.513,0,6.313,1.09,8.403,3.269c2.089,2.181,3.134,5.01,3.134,8.488s-1.033,6.229-3.098,8.245s-4.927,3.024-8.586,3.024
			h-4.781v12.488h-7.171V403.808L142.717,403.808z M169.471,403.808l11.099-35.517h6.562l11.172,35.517h-7.659l-1.903-7.271h-9.781
			l-1.903,7.271H169.471z M230.423,403.465v0.343h-7.708l-5.342-12.979h-3.561v12.979h-7.171v-35.517h11.44
			c3.594,0,6.371,0.931,8.33,2.793c1.96,1.86,2.939,4.508,2.939,7.938c0,4.717-1.716,8.019-5.147,9.902L230.423,403.465z
			 M236.443,374.267v-5.976h24.612v5.976h-8.781v29.541h-7.194v-29.541H236.443L236.443,374.267z M270.173,403.808v-35.517h7.173
			l10.512,23.317v-23.317h7.147v35.517h-7.171l-10.488-23.295v23.295H270.173z M324.101,382.658v5.78h-11.172v9.416h13.223v5.951
			h-20.395V368.29h20.344v5.977h-13.172v8.393L324.101,382.658L324.101,382.658z M359.074,403.465v0.343h-7.708l-5.342-12.979
			h-3.563v12.979h-7.172v-35.517h11.439c3.595,0,6.369,0.931,8.329,2.793c1.96,1.86,2.939,4.508,2.939,7.938
			c0,4.717-1.716,8.019-5.146,9.902L359.074,403.465z M450.314,337.158h-21.173l-8.153-33.492l-9.371,13.015h-6.595l0.521,2.604
			l-12.495,18.047H164.676l-5.206-10.761l-1.562,10.761H90.577l-9.024-10.412H76l-1.388-1.388l-3.124,11.8h-20.65l-18.916-17.354
			l17.701-55.01h20.998l9.717,13.188l1.042-3.817h5.727l2.43-9.371l21.519-0.173l1.041,1.909l0.347-1.909h21.692l0.868,1.909
			l0.347-1.909h21.866l3.818,9.718h0.521l0.694,1.734l1.735-11.453h22.213l0.521,1.736l0.173-1.736h45.64l0.132,1.204l0.042-1.204
			l46.16-0.173l0.04,1.46l0.134-1.46h45.813l0.176,1.909l0.52-1.909h45.466l0.35,1.909l0.866-1.909h44.945l0.521,1.735l1.041-1.735
			h44.599l4.165,13.188l-8.851,10.587v0.174c0.692,2.082,1.215,4.164,1.906,6.248c0.521,1.563,3.125,9.892,3.125,9.892l1.39,4.687
			c0.347,1.391,0.866,2.776,1.215,4.166l1.215,4.164l0.521,1.907L450.314,337.158z"/>
		<polygon fill="#EFE365" points="256.303,297.767 256.129,304.706 277.771,304.706 277.54,297.767 		"/>
		<path fill="#EFE365" d="M318.428,292.386l-0.52-5.553h5.897l-1.906-18.741h-39.915l1.91,50.499h18.048l-1.39-21.52l6.77,0.175
			l1.562,21.345h18.048l-2.603-26.204L318.428,292.386L318.428,292.386z M300.207,287.353l-0.694-10.411h6.421l0.694,10.411H300.207
			z"/>
		<path fill="#EFE365" d="M157.986,384c0.748-0.896,1.122-2.194,1.122-3.903c0-1.771-0.382-3.184-1.146-4.23
			c-0.764-1.049-1.789-1.581-3.073-1.6h-5v11.074h4.927C156.182,385.341,157.238,384.896,157.986,384z"/>
	</g>
</g>
</svg>
